#!OML:ASF E:\acrobat2\Project_11_07_03\Capture day 1\Session 1\Acrobat.ASF
:FULLY-SPECIFIED
:DEGREES
293
root 9.08252 17.963 -27.7686 12.9768 -79.8689 -5.12935
lowerback -0.595864 1.53896 5.43767
upperback -3.32144 2.0888 0.66503
thorax -2.92332 0.886812 -2.39437
lowerneck -2.10104 7.16139 3.61388
upperneck -1.29363 9.4457 -9.46768
head 0.639487 4.66195 -3.51711
rclavicle 2.03444e-014 0
rhumerus -14.7144 -51.8836 3.19044
rradius 20.8566
rwrist -3.43828
rhand -9.20141 -50.9706
rfingers 7.12502
rthumb 16.7526 -80.2679
lclavicle 2.03444e-014 0
lhumerus 10.4171 12.9706 1.89776
lradius 21.7819
lwrist 12.7759
lhand -13.3709 -6.77561
lfingers 7.12502
lthumb 12.7356 22.816
rfemur 6.14961 18.079 13.5772
rtibia -4.7703
rfoot -34.245 -35.8985
rtoes 11.6544
lfemur -19.4408 13.0797 -2.56228
ltibia 32.6518
lfoot -7.97099 -9.60555
ltoes 40.6276
294
root 9.09336 17.9589 -27.7473 14.134 -79.5549 -6.20128
lowerback -0.488953 1.56589 5.52349
upperback -3.27663 2.13263 0.651201
thorax -2.93055 0.907473 -2.4596
lowerneck -2.00272 7.34706 3.51272
upperneck -1.19818 9.70461 -9.72508
head 0.681236 4.78978 -3.58014
rclavicle -4.61864e-014 -3.97569e-016
rhumerus -14.9542 -52.5971 3.2862
rradius 20.8964
rwrist -4.69817
rhand -9.71113 -51.085
rfingers 7.12502
rthumb 16.2618 -80.423
lclavicle -4.61864e-014 -3.97569e-016
lhumerus 10.6712 13.1567 1.8165
lradius 21.8059
lwrist 12.6005
lhand -13.6218 -6.693
lfingers 7.12502
lthumb 12.4938 22.9135
rfemur 6.06114 18.2378 13.8056
rtibia -4.71016
rfoot -34.6029 -36.1887
rtoes 11.5069
lfemur -20.3336 13.8779 -2.38949
ltibia 33.7545
lfoot -7.17242 -10.1728
ltoes 42.1638
295
root 9.10662 17.9544 -27.7229 15.842 -79.1573 -7.7999
lowerback -0.304482 1.56534 5.80879
upperback -3.31158 2.14944 0.612016
thorax -3.05984 0.903291 -2.66562
lowerneck -1.91599 7.57267 3.56269
upperneck -1.17749 10.0104 -9.88189
head 0.707353 4.9432 -3.63578
rclavicle 1.4971e-014 6.36111e-015
rhumerus -15.0537 -52.8307 3.18163
rradius 20.9227
rwrist -6.40104
rhand -10.517 -51.0797
rfingers 7.12502
rthumb 15.4857 -80.4795
lclavicle 1.4971e-014 6.36111e-015
lhumerus 11.0123 13.4314 1.6499
lradius 21.7671
lwrist 12.2871
lhand -13.7295 -6.7586
lfingers 7.12502
lthumb 12.3899 22.8542
rfemur 5.85666 17.8859 14.0774
rtibia -4.64006
rfoot -34.2505 -36.4641
rtoes 10.4261
lfemur -21.3053 14.7088 -2.13007
ltibia 34.9282
lfoot -6.36068 -10.8467
ltoes 44.1377
296
root 9.11926 17.9497 -27.6964 18.0096 -78.6743 -9.86904
lowerback -0.156484 1.57679 6.14917
upperback -3.33527 2.18173 0.612952
thorax -3.15534 0.906432 -2.86001
lowerneck -1.8711 7.76683 4.0429
upperneck -1.24815 10.2633 -10.2338
head 0.746327 5.06968 -3.83891
rclavicle 3.0265e-014 1.19271e-015
rhumerus -15.3439 -53.8322 3.31364
rradius 20.9036
rwrist -7.0181
rhand -11.0106 -51.0187
rfingers 7.12502
rthumb 15.0103 -80.4547
lclavicle 3.0265e-014 1.19271e-015
lhumerus 11.1305 12.3993 0.933634
lradius 21.9775
lwrist 13.4932
lhand -13.7294 -6.47393
lfingers 7.12502
lthumb 12.39 23.1389
rfemur 5.58887 16.8638 14.4127
rtibia -4.62655
rfoot -32.901 -36.8632
rtoes 7.47272
lfemur -22.2394 15.3034 -1.71551
ltibia 35.9616
lfoot -6.03989 -11.2846
ltoes 44.818
297
root 9.12674 17.9444 -27.6655 19.4813 -78.2827 -11.296
lowerback -0.016272 1.60895 6.39377
upperback -3.33006 2.23893 0.543093
thorax -3.21386 0.925784 -3.07414
lowerneck -2.04397 7.99842 4.81163
upperneck -1.01807 10.5847 -10.6822
head 0.954302 5.21776 -4.11101
rclavicle -1.85988e-014 2.34566e-014
rhumerus -15.9098 -56.5212 3.74788
rradius 20.7816
rwrist -5.57527
rhand -10.9539 -50.9587
rfingers 7.12502
rthumb 15.0649 -80.3905
lclavicle -1.85988e-014 2.34566e-014
lhumerus 11.2051 11.427 0.23854
lradius 22.2631
lwrist 14.7589
lhand -13.7959 -6.22481
lfingers 7.12502
lthumb 12.3259 23.3919
rfemur 5.54686 16.8218 14.7124
rtibia -4.49206
rfoot -34.6152 -36.1253
rtoes 11.3551
lfemur -22.9635 15.7468 -1.42677
ltibia 36.7454
lfoot -6.31407 -11.3746
ltoes 43.7087
298
root 9.13135 17.9362 -27.6286 19.7184 -78.0373 -11.5118
lowerback 0.231758 2.11876 6.74882
upperback -3.43035 2.93609 -0.200376
thorax -3.33751 1.24846 -4.06796
lowerneck -2.48196 7.78482 6.76165
upperneck -0.224754 10.3203 -11.3694
head 1.29814 5.0512 -4.21916
rclavicle -5.10442e-014 -2.38542e-014
rhumerus -19.3299 -55.7122 6.24587
rradius 20.9658
rwrist -7.29596
rhand -11.0793 -51.1983
rfingers 7.12502
rthumb 14.9441 -80.6392
lclavicle -5.10442e-014 -2.38542e-014
lhumerus 13.16 10.7921 0.00567959
lradius 22.453
lwrist 15.4449
lhand -14.1131 -6.28979
lfingers 7.12502
lthumb 12.0201 23.345
rfemur 5.49242 16.2996 14.6182
rtibia -4.43357
rfoot -34.205 -36.0706
rtoes 10.5972
lfemur -23.5348 16.1506 -1.46328
ltibia 37.3995
lfoot -6.87311 -11.3362
ltoes 42.0492
299
root 9.13611 17.9252 -27.592 19.0059 -77.8273 -10.7715
lowerback 0.455995 2.24305 6.64667
upperback -3.43653 3.11118 -0.552009
thorax -3.43595 1.33154 -4.39023
lowerneck -2.13532 8.00892 6.71555
upperneck -0.537484 10.6136 -10.8587
head 1.26365 5.22658 -4.51702
rclavicle -6.20581e-015 6.16232e-015
rhumerus -20.0566 -55.1333 6.58369
rradius 21.103
rwrist -8.92618
rhand -11.1892 -51.4071
rfingers 7.12502
rthumb 14.8382 -80.8558
lclavicle -6.20581e-015 6.16232e-015
lhumerus 13.8977 11.1651 -0.0484102
lradius 22.3802
lwrist 15.0052
lhand -14.6218 -6.53627
lfingers 7.12502
lthumb 11.5295 23.1266
rfemur 5.49988 15.8367 14.3062
rtibia -4.43221
rfoot -33.1266 -36.4353
rtoes 7.86997
lfemur -24.0472 16.4553 -1.70435
ltibia 37.9353
lfoot -7.58164 -11.1518
ltoes 40.285
300
root 9.13997 17.9162 -27.5586 19.4288 -77.5314 -11.1725
lowerback 0.649648 2.18259 6.55991
upperback -3.41597 3.04305 -0.573076
thorax -3.5352 1.29731 -4.37066
lowerneck -2.20523 8.25203 6.66629
upperneck -0.376232 10.953 -10.9916
head 1.3688 5.39 -4.5315
rclavicle 2.4395e-014 3.00662e-015
rhumerus -19.8804 -57.024 6.48276
rradius 20.9564
rwrist -8.05938
rhand -11.2694 -51.2489
rfingers 7.12502
rthumb 14.761 -80.7033
lclavicle 2.4395e-014 3.00662e-015
lhumerus 14.0038 11.933 -0.0108276
lradius 22.2182
lwrist 14.2123
lhand -14.9802 -6.66404
lfingers 7.12502
lthumb 11.1839 23.0179
rfemur 5.48514 15.5569 14.3328
rtibia -4.39152
rfoot -32.9222 -36.5429
rtoes 7.27028
lfemur -24.5666 16.8517 -1.62798
ltibia 38.4495
lfoot -8.18757 -10.8768
ltoes 38.8711
301
root 9.14159 17.9085 -27.5242 21.1508 -77.1848 -12.9164
lowerback 0.903238 2.15956 6.73551
upperback -3.43696 3.04012 -0.485047
thorax -3.69846 1.28511 -4.38966
lowerneck -2.27459 8.53279 6.63605
upperneck -0.23846 11.3419 -11.5128
head 1.35468 5.56466 -4.20186
rclavicle 4.85155e-014 2.4612e-014
rhumerus -19.4563 -58.1577 6.23081
rradius 20.8121
rwrist -7.82691
rhand -11.3985 -51.2289
rfingers 7.12502
rthumb 14.6366 -80.6923
lclavicle 4.85155e-014 2.4612e-014
lhumerus 14.0045 12.1807 -0.138823
lradius 22.2206
lwrist 14.0461
lhand -15.0238 -6.57843
lfingers 7.12502
lthumb 11.1418 23.1058
rfemur 5.43798 15.249 14.7221
rtibia -4.27256
rfoot -32.932 -36.3919
rtoes 7.88934
lfemur -25.0586 17.2973 -1.18668
ltibia 38.9765
lfoot -8.62413 -10.6043
ltoes 38.606
302
root 9.14267 17.8989 -27.4887 22.0003 -76.8613 -13.7462
lowerback 1.11023 2.14164 6.73724
upperback -3.44304 3.03309 -0.498187
thorax -3.82244 1.27686 -4.41396
lowerneck -2.43628 8.78588 6.62919
upperneck -0.219705 11.6762 -11.389
head 1.40836 5.72741 -4.13947
rclavicle -3.05476e-014 -6.85807e-015
rhumerus -18.9202 -58.5744 5.83418
rradius 20.6875
rwrist -8.25844
rhand -11.4229 -51.3442
rfingers 7.12502
rthumb 14.6131 -80.8094
lclavicle -3.05476e-014 -6.85807e-015
lhumerus 14.1016 12.6021 -0.214613
lradius 22.2151
lwrist 13.7344
lhand -15.093 -6.61196
lfingers 7.12502
lthumb 11.0751 23.0758
rfemur 5.38369 14.8585 14.8591
rtibia -4.13758
rfoot -33.0608 -36.1696
rtoes 8.56563
lfemur -25.5312 17.4878 -0.925829
ltibia 39.3607
lfoot -9.09098 -10.124
ltoes 39.5906
303
root 9.14316 17.8886 -27.4528 21.7447 -76.5855 -13.4208
lowerback 1.15611 2.1185 6.52199
upperback -3.34409 2.99347 -0.647347
thorax -3.75116 1.26811 -4.44703
lowerneck -2.87013 9.09011 7.06863
upperneck 0.00792726 12.0827 -11.7373
head 1.63215 5.90761 -4.2598
rclavicle -2.75503e-014 -7.45443e-015
rhumerus -18.2299 -57.9738 5.13383
rradius 20.7166
rwrist -9.78296
rhand -11.7441 -51.5407
rfingers 7.12502
rthumb 14.3036 -81.0281
lclavicle -2.75503e-014 -7.45443e-015
lhumerus 14.2514 13.158 -0.342787
lradius 22.1847
lwrist 13.4674
lhand -15.2813 -6.88427
lfingers 7.12502
lthumb 10.8935 22.8132
rfemur 5.29441 14.2641 14.6154
rtibia -4.02036
rfoot -33.2771 -35.8547
rtoes 9.57936
lfemur -25.9542 17.5409 -0.953914
ltibia 39.5591
lfoot -9.70629 -9.34055
ltoes 40.5132
